<mxfile host="app.diagrams.net" modified="2023-08-17T22:54:09.678Z" agent="Mozilla/5.0 (Macintosh; Intel Mac OS X 10_15_7) AppleWebKit/537.36 (KHTML, like Gecko) Chrome/115.0.0.0 Safari/537.36" version="21.6.7" etag="VAtlncovZeKP6AarP62-" type="github">
  <diagram name="Page-1" id="OhFcPtTlOtvvqWhLXs4T">
    <mxGraphModel>
      <root>
        <mxCell id="0" />
        <mxCell id="1" parent="0" />
      </root>
    </mxGraphModel>
  </diagram>
</mxfile>
